<mxfile host="app.diagrams.net" agent="Mozilla/5.0 (Macintosh; Intel Mac OS X 10.15; rv:129.0) Gecko/20100101 Firefox/129.0" version="24.7.6">
  <diagram name="Page-1" id="f-uisQbhkdSaIHGBwfL-">
    <mxGraphModel dx="898" dy="590" grid="1" gridSize="10" guides="1" tooltips="1" connect="1" arrows="1" fold="1" page="1" pageScale="1" pageWidth="850" pageHeight="1100" math="0" shadow="0">
      <root>
        <mxCell id="0" />
        <mxCell id="1" parent="0" />
        <mxCell id="hCPEfPg-iWk2_4fG2lsy-2" value="monitoring.py" style="text;html=1;align=center;verticalAlign=middle;whiteSpace=wrap;rounded=0;fillColor=#f8cecc;strokeColor=#b85450;" parent="1" vertex="1">
          <mxGeometry x="420" y="187" width="100" height="30" as="geometry" />
        </mxCell>
        <mxCell id="hCPEfPg-iWk2_4fG2lsy-4" value="xl_pedidos" style="text;html=1;align=center;verticalAlign=middle;whiteSpace=wrap;rounded=0;" parent="1" vertex="1">
          <mxGeometry x="110" y="150" width="60" height="30" as="geometry" />
        </mxCell>
        <mxCell id="hCPEfPg-iWk2_4fG2lsy-5" value="xl_erp_20230825653" style="text;html=1;align=center;verticalAlign=middle;whiteSpace=wrap;rounded=0;" parent="1" vertex="1">
          <mxGeometry x="80" y="200" width="140" height="30" as="geometry" />
        </mxCell>
        <mxCell id="hCPEfPg-iWk2_4fG2lsy-6" value="" style="shape=flexArrow;endArrow=classic;html=1;rounded=0;" parent="1" edge="1">
          <mxGeometry width="50" height="50" relative="1" as="geometry">
            <mxPoint x="200" y="170" as="sourcePoint" />
            <mxPoint x="280" y="180" as="targetPoint" />
          </mxGeometry>
        </mxCell>
        <mxCell id="hCPEfPg-iWk2_4fG2lsy-7" value="" style="shape=flexArrow;endArrow=classic;html=1;rounded=0;exitX=1;exitY=0.5;exitDx=0;exitDy=0;" parent="1" source="hCPEfPg-iWk2_4fG2lsy-5" edge="1">
          <mxGeometry width="50" height="50" relative="1" as="geometry">
            <mxPoint x="260" y="220" as="sourcePoint" />
            <mxPoint x="290" y="213" as="targetPoint" />
          </mxGeometry>
        </mxCell>
        <mxCell id="hCPEfPg-iWk2_4fG2lsy-8" value="" style="outlineConnect=0;dashed=0;verticalLabelPosition=bottom;verticalAlign=top;align=center;html=1;shape=mxgraph.aws3.s3;fillColor=#E05243;gradientColor=none;" parent="1" vertex="1">
          <mxGeometry x="115.75" y="250" width="48.5" height="53" as="geometry" />
        </mxCell>
        <mxCell id="hCPEfPg-iWk2_4fG2lsy-12" value="" style="shape=table;startSize=0;container=1;collapsible=0;childLayout=tableLayout;fontSize=16;" parent="1" vertex="1">
          <mxGeometry x="425" y="37" width="70" height="53" as="geometry" />
        </mxCell>
        <mxCell id="hCPEfPg-iWk2_4fG2lsy-13" value="" style="shape=tableRow;horizontal=0;startSize=0;swimlaneHead=0;swimlaneBody=0;strokeColor=inherit;top=0;left=0;bottom=0;right=0;collapsible=0;dropTarget=0;fillColor=none;points=[[0,0.5],[1,0.5]];portConstraint=eastwest;fontSize=16;" parent="hCPEfPg-iWk2_4fG2lsy-12" vertex="1">
          <mxGeometry width="70" height="20" as="geometry" />
        </mxCell>
        <mxCell id="hCPEfPg-iWk2_4fG2lsy-14" value="" style="shape=partialRectangle;html=1;whiteSpace=wrap;connectable=0;strokeColor=inherit;overflow=hidden;fillColor=none;top=0;left=0;bottom=0;right=0;pointerEvents=1;fontSize=16;" parent="hCPEfPg-iWk2_4fG2lsy-13" vertex="1">
          <mxGeometry width="23" height="20" as="geometry">
            <mxRectangle width="23" height="20" as="alternateBounds" />
          </mxGeometry>
        </mxCell>
        <mxCell id="hCPEfPg-iWk2_4fG2lsy-15" value="" style="shape=partialRectangle;html=1;whiteSpace=wrap;connectable=0;strokeColor=inherit;overflow=hidden;fillColor=none;top=0;left=0;bottom=0;right=0;pointerEvents=1;fontSize=16;" parent="hCPEfPg-iWk2_4fG2lsy-13" vertex="1">
          <mxGeometry x="23" width="24" height="20" as="geometry">
            <mxRectangle width="24" height="20" as="alternateBounds" />
          </mxGeometry>
        </mxCell>
        <mxCell id="hCPEfPg-iWk2_4fG2lsy-16" value="" style="shape=partialRectangle;html=1;whiteSpace=wrap;connectable=0;strokeColor=inherit;overflow=hidden;fillColor=none;top=0;left=0;bottom=0;right=0;pointerEvents=1;fontSize=16;" parent="hCPEfPg-iWk2_4fG2lsy-13" vertex="1">
          <mxGeometry x="47" width="23" height="20" as="geometry">
            <mxRectangle width="23" height="20" as="alternateBounds" />
          </mxGeometry>
        </mxCell>
        <mxCell id="hCPEfPg-iWk2_4fG2lsy-17" value="" style="shape=tableRow;horizontal=0;startSize=0;swimlaneHead=0;swimlaneBody=0;strokeColor=inherit;top=0;left=0;bottom=0;right=0;collapsible=0;dropTarget=0;fillColor=none;points=[[0,0.5],[1,0.5]];portConstraint=eastwest;fontSize=16;" parent="hCPEfPg-iWk2_4fG2lsy-12" vertex="1">
          <mxGeometry y="20" width="70" height="16" as="geometry" />
        </mxCell>
        <mxCell id="hCPEfPg-iWk2_4fG2lsy-18" value="" style="shape=partialRectangle;html=1;whiteSpace=wrap;connectable=0;strokeColor=inherit;overflow=hidden;fillColor=none;top=0;left=0;bottom=0;right=0;pointerEvents=1;fontSize=16;" parent="hCPEfPg-iWk2_4fG2lsy-17" vertex="1">
          <mxGeometry width="23" height="16" as="geometry">
            <mxRectangle width="23" height="16" as="alternateBounds" />
          </mxGeometry>
        </mxCell>
        <mxCell id="hCPEfPg-iWk2_4fG2lsy-19" value="" style="shape=partialRectangle;html=1;whiteSpace=wrap;connectable=0;strokeColor=inherit;overflow=hidden;fillColor=none;top=0;left=0;bottom=0;right=0;pointerEvents=1;fontSize=16;" parent="hCPEfPg-iWk2_4fG2lsy-17" vertex="1">
          <mxGeometry x="23" width="24" height="16" as="geometry">
            <mxRectangle width="24" height="16" as="alternateBounds" />
          </mxGeometry>
        </mxCell>
        <mxCell id="hCPEfPg-iWk2_4fG2lsy-20" value="" style="shape=partialRectangle;html=1;whiteSpace=wrap;connectable=0;strokeColor=inherit;overflow=hidden;fillColor=none;top=0;left=0;bottom=0;right=0;pointerEvents=1;fontSize=16;" parent="hCPEfPg-iWk2_4fG2lsy-17" vertex="1">
          <mxGeometry x="47" width="23" height="16" as="geometry">
            <mxRectangle width="23" height="16" as="alternateBounds" />
          </mxGeometry>
        </mxCell>
        <mxCell id="hCPEfPg-iWk2_4fG2lsy-21" value="" style="shape=tableRow;horizontal=0;startSize=0;swimlaneHead=0;swimlaneBody=0;strokeColor=inherit;top=0;left=0;bottom=0;right=0;collapsible=0;dropTarget=0;fillColor=none;points=[[0,0.5],[1,0.5]];portConstraint=eastwest;fontSize=16;" parent="hCPEfPg-iWk2_4fG2lsy-12" vertex="1">
          <mxGeometry y="36" width="70" height="17" as="geometry" />
        </mxCell>
        <mxCell id="hCPEfPg-iWk2_4fG2lsy-22" value="" style="shape=partialRectangle;html=1;whiteSpace=wrap;connectable=0;strokeColor=inherit;overflow=hidden;fillColor=none;top=0;left=0;bottom=0;right=0;pointerEvents=1;fontSize=16;" parent="hCPEfPg-iWk2_4fG2lsy-21" vertex="1">
          <mxGeometry width="23" height="17" as="geometry">
            <mxRectangle width="23" height="17" as="alternateBounds" />
          </mxGeometry>
        </mxCell>
        <mxCell id="hCPEfPg-iWk2_4fG2lsy-23" value="" style="shape=partialRectangle;html=1;whiteSpace=wrap;connectable=0;strokeColor=inherit;overflow=hidden;fillColor=none;top=0;left=0;bottom=0;right=0;pointerEvents=1;fontSize=16;" parent="hCPEfPg-iWk2_4fG2lsy-21" vertex="1">
          <mxGeometry x="23" width="24" height="17" as="geometry">
            <mxRectangle width="24" height="17" as="alternateBounds" />
          </mxGeometry>
        </mxCell>
        <mxCell id="hCPEfPg-iWk2_4fG2lsy-24" value="" style="shape=partialRectangle;html=1;whiteSpace=wrap;connectable=0;strokeColor=inherit;overflow=hidden;fillColor=none;top=0;left=0;bottom=0;right=0;pointerEvents=1;fontSize=16;" parent="hCPEfPg-iWk2_4fG2lsy-21" vertex="1">
          <mxGeometry x="47" width="23" height="17" as="geometry">
            <mxRectangle width="23" height="17" as="alternateBounds" />
          </mxGeometry>
        </mxCell>
        <mxCell id="hCPEfPg-iWk2_4fG2lsy-25" value="" style="shape=flexArrow;endArrow=classic;html=1;rounded=0;" parent="1" edge="1">
          <mxGeometry width="50" height="50" relative="1" as="geometry">
            <mxPoint x="465" y="167" as="sourcePoint" />
            <mxPoint x="465" y="107" as="targetPoint" />
          </mxGeometry>
        </mxCell>
        <mxCell id="hCPEfPg-iWk2_4fG2lsy-26" value="" style="outlineConnect=0;dashed=0;verticalLabelPosition=bottom;verticalAlign=top;align=center;html=1;shape=mxgraph.aws3.quicksight;fillColor=#00B7F4;gradientColor=none;" parent="1" vertex="1">
          <mxGeometry x="585" y="30" width="50" height="47" as="geometry" />
        </mxCell>
        <mxCell id="hCPEfPg-iWk2_4fG2lsy-27" value="xl" style="text;html=1;align=center;verticalAlign=middle;whiteSpace=wrap;rounded=0;" parent="1" vertex="1">
          <mxGeometry x="585" y="97" width="60" height="30" as="geometry" />
        </mxCell>
        <mxCell id="hCPEfPg-iWk2_4fG2lsy-28" value="" style="shape=flexArrow;endArrow=classic;html=1;rounded=0;" parent="1" edge="1">
          <mxGeometry width="50" height="50" relative="1" as="geometry">
            <mxPoint x="515" y="67" as="sourcePoint" />
            <mxPoint x="575" y="67" as="targetPoint" />
          </mxGeometry>
        </mxCell>
        <mxCell id="hCPEfPg-iWk2_4fG2lsy-29" value="" style="shape=flexArrow;endArrow=classic;html=1;rounded=0;entryX=0;entryY=0.5;entryDx=0;entryDy=0;" parent="1" target="hCPEfPg-iWk2_4fG2lsy-27" edge="1">
          <mxGeometry width="50" height="50" relative="1" as="geometry">
            <mxPoint x="525" y="77" as="sourcePoint" />
            <mxPoint x="585" y="77" as="targetPoint" />
          </mxGeometry>
        </mxCell>
        <mxCell id="hCPEfPg-iWk2_4fG2lsy-30" value="validation.py" style="text;html=1;align=center;verticalAlign=middle;whiteSpace=wrap;rounded=0;" parent="1" vertex="1">
          <mxGeometry x="285" y="180" width="100" height="30" as="geometry" />
        </mxCell>
        <mxCell id="hCPEfPg-iWk2_4fG2lsy-31" value="" style="shape=flexArrow;endArrow=classic;html=1;rounded=0;exitX=1;exitY=0.75;exitDx=0;exitDy=0;entryX=0;entryY=0.75;entryDx=0;entryDy=0;" parent="1" source="hCPEfPg-iWk2_4fG2lsy-30" target="hCPEfPg-iWk2_4fG2lsy-2" edge="1">
          <mxGeometry width="50" height="50" relative="1" as="geometry">
            <mxPoint x="475" y="177" as="sourcePoint" />
            <mxPoint x="475" y="117" as="targetPoint" />
          </mxGeometry>
        </mxCell>
        <mxCell id="hCPEfPg-iWk2_4fG2lsy-32" value="pandas, xlwings, xlrd" style="text;html=1;align=center;verticalAlign=middle;whiteSpace=wrap;rounded=0;" parent="1" vertex="1">
          <mxGeometry x="390" y="280" width="160" height="30" as="geometry" />
        </mxCell>
        <mxCell id="hCPEfPg-iWk2_4fG2lsy-33" value="monitoring.py" style="text;html=1;align=center;verticalAlign=middle;whiteSpace=wrap;rounded=0;fillColor=#f8cecc;strokeColor=#b85450;" parent="1" vertex="1">
          <mxGeometry x="170" y="430" width="100" height="30" as="geometry" />
        </mxCell>
        <mxCell id="hCPEfPg-iWk2_4fG2lsy-34" value="validation.py" style="text;html=1;align=center;verticalAlign=middle;whiteSpace=wrap;rounded=0;" parent="1" vertex="1">
          <mxGeometry x="170" y="480" width="100" height="30" as="geometry" />
        </mxCell>
        <mxCell id="hCPEfPg-iWk2_4fG2lsy-35" value="" style="verticalLabelPosition=bottom;html=1;verticalAlign=top;align=center;strokeColor=none;fillColor=#00BEF2;shape=mxgraph.azure.github_code;pointerEvents=1;" parent="1" vertex="1">
          <mxGeometry x="195" y="350" width="50" height="50" as="geometry" />
        </mxCell>
        <mxCell id="hCPEfPg-iWk2_4fG2lsy-36" value="Virtual environment" style="text;html=1;align=center;verticalAlign=middle;whiteSpace=wrap;rounded=0;" parent="1" vertex="1">
          <mxGeometry x="365" y="360" width="60" height="30" as="geometry" />
        </mxCell>
      </root>
    </mxGraphModel>
  </diagram>
</mxfile>
